<?xml version="1.0" encoding="UTF-8"?>
<svg width="14" height="14" viewBox="0 0 491.237793 452.9882813" xmlns="http://www.w3.org/2000/svg">
 <g fill="hsl(0, 0%, 52%)" stroke="#000">
  <g fill-rule="evenodd" stroke="none">
   <path d="m328.09 256.78c-5.5918 8.1719-13.28 17.08-22.191 25.297-9.6856 8.9316-20.244 16.551-27.434 20.464l163.13 150.45 49.649-45.783-163.15-150.42z"/>
   <path d="m283.83 45.058c-65.176-60.078-169.79-60.078-234.97 0-65.151 60.101-65.151 156.57 0 216.67 65.175 60.101 169.79 60.101 234.97 0s65.176-156.57 0-216.67zm-34.198 31.535c-46.204-42.607-120.39-42.607-166.57 0-46.205 42.584-46.205 110.99 0 153.6 46.18 42.606 120.37 42.606 166.57 0 46.205-42.607 46.205-111.02 0-153.6z"/>
  </g>
 </g>
</svg>
